{
	"asset":{
		"generator":"Khronos glTF Blender I/O v4.1.63",
		"version":"2.0"
	},
	"scene":0,
	"scenes":[
		{
			"name":"Scene",
			"nodes":[
				0
			]
		}
	],
	"nodes":[
		{
			"mesh":0,
			"name":"Hume MRT"
		}
	],
	"materials":[
		{
			"doubleSided":true,
			"name":"Chrome",
			"pbrMetallicRoughness":{
				"baseColorFactor":[
					0.27987146377563477,
					0.27987146377563477,
					0.27987146377563477,
					1
				],
				"metallicFactor":0,
				"roughnessFactor":0.1513761579990387
			}
		},
		{
			"doubleSided":true,
			"name":"Cube",
			"pbrMetallicRoughness":{
				"baseColorFactor":[
					0.7453993558883667,
					0.7454048991203308,
					0.7454046010971069,
					1
				],
				"metallicFactor":0,
				"roughnessFactor":0.5
			}
		},
		{
			"doubleSided":true,
			"name":"beige wall",
			"pbrMetallicRoughness":{
				"baseColorFactor":[
					1,
					0.7861779928207397,
					0.5956032872200012,
					1
				],
				"metallicFactor":0,
				"roughnessFactor":0.5
			}
		},
		{
			"doubleSided":true,
			"name":"Window Frames",
			"pbrMetallicRoughness":{
				"baseColorFactor":[
					0.08180034905672073,
					0.08180034905672073,
					0.08180034905672073,
					1
				],
				"metallicFactor":0,
				"roughnessFactor":0.5
			}
		},
		{
			"doubleSided":true,
			"name":"Window",
			"pbrMetallicRoughness":{
				"baseColorFactor":[
					0.29986491799354553,
					0.29986491799354553,
					0.29986491799354553,
					1
				],
				"metallicFactor":0,
				"roughnessFactor":0.5
			}
		},
		{
			"doubleSided":true,
			"name":"surface",
			"pbrMetallicRoughness":{
				"baseColorFactor":[
					0.22177481651306152,
					0.3172340393066406,
					0.3535973131656647,
					1
				],
				"metallicFactor":0,
				"roughnessFactor":0.5
			}
		},
		{
			"doubleSided":true,
			"name":"SMRT Logo",
			"pbrMetallicRoughness":{
				"baseColorFactor":[
					0.8002588152885437,
					0.5188717842102051,
					0.09333153814077377,
					1
				],
				"metallicFactor":0,
				"roughnessFactor":0.5
			}
		},
		{
			"doubleSided":true,
			"name":"heading",
			"pbrMetallicRoughness":{
				"baseColorFactor":[
					0.3647581934928894,
					0.1842135488986969,
					0.10040753334760666,
					1
				],
				"metallicFactor":0,
				"roughnessFactor":0.5
			}
		}
	],
	"meshes":[
		{
			"name":"Cube.039",
			"primitives":[
				{
					"attributes":{
						"POSITION":0,
						"NORMAL":1,
						"TEXCOORD_0":2
					},
					"indices":3,
					"material":0
				},
				{
					"attributes":{
						"POSITION":4,
						"NORMAL":5,
						"TEXCOORD_0":6
					},
					"indices":7,
					"material":1
				},
				{
					"attributes":{
						"POSITION":8,
						"NORMAL":9,
						"TEXCOORD_0":10
					},
					"indices":11,
					"material":2
				},
				{
					"attributes":{
						"POSITION":12,
						"NORMAL":13,
						"TEXCOORD_0":14
					},
					"indices":15,
					"material":3
				},
				{
					"attributes":{
						"POSITION":16,
						"NORMAL":17,
						"TEXCOORD_0":18
					},
					"indices":19,
					"material":4
				},
				{
					"attributes":{
						"POSITION":20,
						"NORMAL":21,
						"TEXCOORD_0":22
					},
					"indices":23,
					"material":5
				},
				{
					"attributes":{
						"POSITION":24,
						"NORMAL":25,
						"TEXCOORD_0":26
					},
					"indices":27,
					"material":6
				},
				{
					"attributes":{
						"POSITION":28,
						"NORMAL":29,
						"TEXCOORD_0":30
					},
					"indices":31,
					"material":7
				}
			]
		}
	],
	"accessors":[
		{
			"bufferView":0,
			"componentType":5126,
			"count":4304,
			"max":[
				0.21813595294952393,
				0.032457731664180756,
				0.018520168960094452
			],
			"min":[
				-0.21813590824604034,
				-0.032457731664180756,
				-0.013383576646447182
			],
			"type":"VEC3"
		},
		{
			"bufferView":1,
			"componentType":5126,
			"count":4304,
			"type":"VEC3"
		},
		{
			"bufferView":2,
			"componentType":5126,
			"count":4304,
			"type":"VEC2"
		},
		{
			"bufferView":3,
			"componentType":5123,
			"count":7512,
			"type":"SCALAR"
		},
		{
			"bufferView":4,
			"componentType":5126,
			"count":194,
			"max":[
				0.596142053604126,
				0.38706693053245544,
				-0.2612958252429962
			],
			"min":[
				-0.492633581161499,
				0.037086423486471176,
				-0.8100820779800415
			],
			"type":"VEC3"
		},
		{
			"bufferView":5,
			"componentType":5126,
			"count":194,
			"type":"VEC3"
		},
		{
			"bufferView":6,
			"componentType":5126,
			"count":194,
			"type":"VEC2"
		},
		{
			"bufferView":7,
			"componentType":5123,
			"count":690,
			"type":"SCALAR"
		},
		{
			"bufferView":8,
			"componentType":5126,
			"count":637,
			"max":[
				0.6459819674491882,
				0.43538713455200195,
				-0.18932585418224335
			],
			"min":[
				-0.4923452138900757,
				0.03814632073044777,
				-1.0008896589279175
			],
			"type":"VEC3"
		},
		{
			"bufferView":9,
			"componentType":5126,
			"count":637,
			"type":"VEC3"
		},
		{
			"bufferView":10,
			"componentType":5126,
			"count":637,
			"type":"VEC2"
		},
		{
			"bufferView":11,
			"componentType":5123,
			"count":1407,
			"type":"SCALAR"
		},
		{
			"bufferView":12,
			"componentType":5126,
			"count":833,
			"max":[
				0.5100870132446289,
				0.4428621530532837,
				-0.18932585418224335
			],
			"min":[
				-0.3694332540035248,
				0.03814632073044777,
				-1.019118309020996
			],
			"type":"VEC3"
		},
		{
			"bufferView":13,
			"componentType":5126,
			"count":833,
			"type":"VEC3"
		},
		{
			"bufferView":14,
			"componentType":5126,
			"count":833,
			"type":"VEC2"
		},
		{
			"bufferView":15,
			"componentType":5123,
			"count":1173,
			"type":"SCALAR"
		},
		{
			"bufferView":16,
			"componentType":5126,
			"count":254,
			"max":[
				0.5548489093780518,
				0.34649476408958435,
				-0.1974402666091919
			],
			"min":[
				-0.3530133068561554,
				0.03814632073044777,
				-0.9684079885482788
			],
			"type":"VEC3"
		},
		{
			"bufferView":17,
			"componentType":5126,
			"count":254,
			"type":"VEC3"
		},
		{
			"bufferView":18,
			"componentType":5126,
			"count":254,
			"type":"VEC2"
		},
		{
			"bufferView":19,
			"componentType":5123,
			"count":402,
			"type":"SCALAR"
		},
		{
			"bufferView":20,
			"componentType":5126,
			"count":48,
			"max":[
				0.6824366450309753,
				0.1247348040342331,
				-0.005658713169395924
			],
			"min":[
				-0.6797252297401428,
				-0.04507080465555191,
				-1.135748267173767
			],
			"type":"VEC3"
		},
		{
			"bufferView":21,
			"componentType":5126,
			"count":48,
			"type":"VEC3"
		},
		{
			"bufferView":22,
			"componentType":5126,
			"count":48,
			"type":"VEC2"
		},
		{
			"bufferView":23,
			"componentType":5123,
			"count":78,
			"type":"SCALAR"
		},
		{
			"bufferView":24,
			"componentType":5126,
			"count":920,
			"max":[
				-0.19673407077789307,
				0.29813265800476074,
				-0.2125188410282135
			],
			"min":[
				-0.332418292760849,
				0.23392170667648315,
				-0.22012963891029358
			],
			"type":"VEC3"
		},
		{
			"bufferView":25,
			"componentType":5126,
			"count":920,
			"type":"VEC3"
		},
		{
			"bufferView":26,
			"componentType":5126,
			"count":920,
			"type":"VEC2"
		},
		{
			"bufferView":27,
			"componentType":5123,
			"count":1548,
			"type":"SCALAR"
		},
		{
			"bufferView":28,
			"componentType":5126,
			"count":20,
			"max":[
				0.47184208035469055,
				0.1247348040342331,
				-0.11711520701646805
			],
			"min":[
				-0.4888242483139038,
				0.1066756471991539,
				-0.3237679898738861
			],
			"type":"VEC3"
		},
		{
			"bufferView":29,
			"componentType":5126,
			"count":20,
			"type":"VEC3"
		},
		{
			"bufferView":30,
			"componentType":5126,
			"count":20,
			"type":"VEC2"
		},
		{
			"bufferView":31,
			"componentType":5123,
			"count":30,
			"type":"SCALAR"
		}
	],
	"bufferViews":[
		{
			"buffer":0,
			"byteLength":51648,
			"byteOffset":0,
			"target":34962
		},
		{
			"buffer":0,
			"byteLength":51648,
			"byteOffset":51648,
			"target":34962
		},
		{
			"buffer":0,
			"byteLength":34432,
			"byteOffset":103296,
			"target":34962
		},
		{
			"buffer":0,
			"byteLength":15024,
			"byteOffset":137728,
			"target":34963
		},
		{
			"buffer":0,
			"byteLength":2328,
			"byteOffset":152752,
			"target":34962
		},
		{
			"buffer":0,
			"byteLength":2328,
			"byteOffset":155080,
			"target":34962
		},
		{
			"buffer":0,
			"byteLength":1552,
			"byteOffset":157408,
			"target":34962
		},
		{
			"buffer":0,
			"byteLength":1380,
			"byteOffset":158960,
			"target":34963
		},
		{
			"buffer":0,
			"byteLength":7644,
			"byteOffset":160340,
			"target":34962
		},
		{
			"buffer":0,
			"byteLength":7644,
			"byteOffset":167984,
			"target":34962
		},
		{
			"buffer":0,
			"byteLength":5096,
			"byteOffset":175628,
			"target":34962
		},
		{
			"buffer":0,
			"byteLength":2814,
			"byteOffset":180724,
			"target":34963
		},
		{
			"buffer":0,
			"byteLength":9996,
			"byteOffset":183540,
			"target":34962
		},
		{
			"buffer":0,
			"byteLength":9996,
			"byteOffset":193536,
			"target":34962
		},
		{
			"buffer":0,
			"byteLength":6664,
			"byteOffset":203532,
			"target":34962
		},
		{
			"buffer":0,
			"byteLength":2346,
			"byteOffset":210196,
			"target":34963
		},
		{
			"buffer":0,
			"byteLength":3048,
			"byteOffset":212544,
			"target":34962
		},
		{
			"buffer":0,
			"byteLength":3048,
			"byteOffset":215592,
			"target":34962
		},
		{
			"buffer":0,
			"byteLength":2032,
			"byteOffset":218640,
			"target":34962
		},
		{
			"buffer":0,
			"byteLength":804,
			"byteOffset":220672,
			"target":34963
		},
		{
			"buffer":0,
			"byteLength":576,
			"byteOffset":221476,
			"target":34962
		},
		{
			"buffer":0,
			"byteLength":576,
			"byteOffset":222052,
			"target":34962
		},
		{
			"buffer":0,
			"byteLength":384,
			"byteOffset":222628,
			"target":34962
		},
		{
			"buffer":0,
			"byteLength":156,
			"byteOffset":223012,
			"target":34963
		},
		{
			"buffer":0,
			"byteLength":11040,
			"byteOffset":223168,
			"target":34962
		},
		{
			"buffer":0,
			"byteLength":11040,
			"byteOffset":234208,
			"target":34962
		},
		{
			"buffer":0,
			"byteLength":7360,
			"byteOffset":245248,
			"target":34962
		},
		{
			"buffer":0,
			"byteLength":3096,
			"byteOffset":252608,
			"target":34963
		},
		{
			"buffer":0,
			"byteLength":240,
			"byteOffset":255704,
			"target":34962
		},
		{
			"buffer":0,
			"byteLength":240,
			"byteOffset":255944,
			"target":34962
		},
		{
			"buffer":0,
			"byteLength":160,
			"byteOffset":256184,
			"target":34962
		},
		{
			"buffer":0,
			"byteLength":60,
			"byteOffset":256344,
			"target":34963
		}
	],
	"buffers":[
		{
			"byteLength":256404,
			"uri":"Hume_MRT_Resized.bin"
		}
	]
}
