{
	"asset":{
		"generator":"Khronos glTF Blender I/O v4.1.63",
		"version":"2.0"
	},
	"scene":0,
	"scenes":[
		{
			"name":"Scene",
			"nodes":[
				0
			]
		}
	],
	"nodes":[
		{
			"mesh":0,
			"name":"Hume MRT"
		}
	],
	"materials":[
		{
			"doubleSided":true,
			"name":"Chrome",
			"pbrMetallicRoughness":{
				"baseColorFactor":[
					0.27987146377563477,
					0.27987146377563477,
					0.27987146377563477,
					1
				],
				"metallicFactor":0,
				"roughnessFactor":0.1513761579990387
			}
		},
		{
			"doubleSided":true,
			"name":"Cube",
			"pbrMetallicRoughness":{
				"baseColorFactor":[
					0.7453993558883667,
					0.7454048991203308,
					0.7454046010971069,
					1
				],
				"metallicFactor":0,
				"roughnessFactor":0.5
			}
		},
		{
			"doubleSided":true,
			"name":"beige wall",
			"pbrMetallicRoughness":{
				"baseColorFactor":[
					1,
					0.7861779928207397,
					0.5956032872200012,
					1
				],
				"metallicFactor":0,
				"roughnessFactor":0.5
			}
		},
		{
			"doubleSided":true,
			"name":"Window Frames",
			"pbrMetallicRoughness":{
				"baseColorFactor":[
					0.08180034905672073,
					0.08180034905672073,
					0.08180034905672073,
					1
				],
				"metallicFactor":0,
				"roughnessFactor":0.5
			}
		},
		{
			"doubleSided":true,
			"name":"Window",
			"pbrMetallicRoughness":{
				"baseColorFactor":[
					0.29986491799354553,
					0.29986491799354553,
					0.29986491799354553,
					1
				],
				"metallicFactor":0,
				"roughnessFactor":0.5
			}
		},
		{
			"doubleSided":true,
			"name":"surface",
			"pbrMetallicRoughness":{
				"baseColorFactor":[
					0.22177481651306152,
					0.3172340393066406,
					0.3535973131656647,
					1
				],
				"metallicFactor":0,
				"roughnessFactor":0.5
			}
		},
		{
			"doubleSided":true,
			"name":"SMRT Logo",
			"pbrMetallicRoughness":{
				"baseColorFactor":[
					0.8002588152885437,
					0.5188717842102051,
					0.09333153814077377,
					1
				],
				"metallicFactor":0,
				"roughnessFactor":0.5
			}
		},
		{
			"doubleSided":true,
			"name":"heading",
			"pbrMetallicRoughness":{
				"baseColorFactor":[
					0.3647581934928894,
					0.1842135488986969,
					0.10040753334760666,
					1
				],
				"metallicFactor":0,
				"roughnessFactor":0.5
			}
		}
	],
	"meshes":[
		{
			"name":"Cube.039",
			"primitives":[
				{
					"attributes":{
						"POSITION":0,
						"NORMAL":1,
						"TEXCOORD_0":2
					},
					"indices":3,
					"material":0
				},
				{
					"attributes":{
						"POSITION":4,
						"NORMAL":5,
						"TEXCOORD_0":6
					},
					"indices":7,
					"material":1
				},
				{
					"attributes":{
						"POSITION":8,
						"NORMAL":9,
						"TEXCOORD_0":10
					},
					"indices":11,
					"material":2
				},
				{
					"attributes":{
						"POSITION":12,
						"NORMAL":13,
						"TEXCOORD_0":14
					},
					"indices":15,
					"material":3
				},
				{
					"attributes":{
						"POSITION":16,
						"NORMAL":17,
						"TEXCOORD_0":18
					},
					"indices":19,
					"material":4
				},
				{
					"attributes":{
						"POSITION":20,
						"NORMAL":21,
						"TEXCOORD_0":22
					},
					"indices":23,
					"material":5
				},
				{
					"attributes":{
						"POSITION":24,
						"NORMAL":25,
						"TEXCOORD_0":26
					},
					"indices":27,
					"material":6
				},
				{
					"attributes":{
						"POSITION":28,
						"NORMAL":29,
						"TEXCOORD_0":30
					},
					"indices":31,
					"material":7
				}
			]
		}
	],
	"accessors":[
		{
			"bufferView":0,
			"componentType":5126,
			"count":4207,
			"max":[
				0.0385279655456543,
				0.005732804071158171,
				0.00236385315656662
			],
			"min":[
				-0.038527972996234894,
				-0.005732804071158171,
				-0.0032710982486605644
			],
			"type":"VEC3"
		},
		{
			"bufferView":1,
			"componentType":5126,
			"count":4207,
			"type":"VEC3"
		},
		{
			"bufferView":2,
			"componentType":5126,
			"count":4207,
			"type":"VEC2"
		},
		{
			"bufferView":3,
			"componentType":5123,
			"count":7512,
			"type":"SCALAR"
		},
		{
			"bufferView":4,
			"componentType":5126,
			"count":194,
			"max":[
				0.08701074868440628,
				0.0683651864528656,
				0.14307966828346252
			],
			"min":[
				-0.10529281198978424,
				0.006550340447574854,
				0.04615103453397751
			],
			"type":"VEC3"
		},
		{
			"bufferView":5,
			"componentType":5126,
			"count":194,
			"type":"VEC3"
		},
		{
			"bufferView":6,
			"componentType":5126,
			"count":194,
			"type":"VEC2"
		},
		{
			"bufferView":7,
			"componentType":5123,
			"count":690,
			"type":"SCALAR"
		},
		{
			"bufferView":8,
			"componentType":5126,
			"count":643,
			"max":[
				0.08695980906486511,
				0.07689967751502991,
				0.1767808198928833
			],
			"min":[
				-0.11409572511911392,
				0.006737543735653162,
				0.033439427614212036
			],
			"type":"VEC3"
		},
		{
			"bufferView":9,
			"componentType":5126,
			"count":643,
			"type":"VEC3"
		},
		{
			"bufferView":10,
			"componentType":5126,
			"count":643,
			"type":"VEC2"
		},
		{
			"bufferView":11,
			"componentType":5123,
			"count":1407,
			"type":"SCALAR"
		},
		{
			"bufferView":12,
			"componentType":5126,
			"count":831,
			"max":[
				0.06525065004825592,
				0.0782199427485466,
				0.1800004243850708
			],
			"min":[
				-0.0900934562087059,
				0.006737543735653162,
				0.033439427614212036
			],
			"type":"VEC3"
		},
		{
			"bufferView":13,
			"componentType":5126,
			"count":831,
			"type":"VEC3"
		},
		{
			"bufferView":14,
			"componentType":5126,
			"count":831,
			"type":"VEC2"
		},
		{
			"bufferView":15,
			"componentType":5123,
			"count":1173,
			"type":"SCALAR"
		},
		{
			"bufferView":16,
			"componentType":5126,
			"count":255,
			"max":[
				0.06235050410032272,
				0.06119917705655098,
				0.1710437685251236
			],
			"min":[
				-0.0979994609951973,
				0.006737543735653162,
				0.0348726250231266
			],
			"type":"VEC3"
		},
		{
			"bufferView":17,
			"componentType":5126,
			"count":255,
			"type":"VEC3"
		},
		{
			"bufferView":18,
			"componentType":5126,
			"count":255,
			"type":"VEC2"
		},
		{
			"bufferView":19,
			"componentType":5123,
			"count":402,
			"type":"SCALAR"
		},
		{
			"bufferView":20,
			"componentType":5126,
			"count":48,
			"max":[
				0.12005554884672165,
				0.022031119093298912,
				0.2006000131368637
			],
			"min":[
				-0.12053446471691132,
				-0.007960570976138115,
				0.0009994732681661844
			],
			"type":"VEC3"
		},
		{
			"bufferView":21,
			"componentType":5126,
			"count":48,
			"type":"VEC3"
		},
		{
			"bufferView":22,
			"componentType":5126,
			"count":48,
			"type":"VEC2"
		},
		{
			"bufferView":23,
			"componentType":5123,
			"count":78,
			"type":"SCALAR"
		},
		{
			"bufferView":24,
			"componentType":5126,
			"count":926,
			"max":[
				0.05871293321251869,
				0.05265728756785393,
				0.038880109786987305
			],
			"min":[
				0.0347478911280632,
				0.041316110640764236,
				0.03753586485981941
			],
			"type":"VEC3"
		},
		{
			"bufferView":25,
			"componentType":5126,
			"count":926,
			"type":"VEC3"
		},
		{
			"bufferView":26,
			"componentType":5126,
			"count":926,
			"type":"VEC2"
		},
		{
			"bufferView":27,
			"componentType":5123,
			"count":1548,
			"type":"SCALAR"
		},
		{
			"bufferView":28,
			"componentType":5126,
			"count":20,
			"max":[
				0.08633793145418167,
				0.022031119093298912,
				0.057185087352991104
			],
			"min":[
				-0.08333848416805267,
				0.018841445446014404,
				0.02068532630801201
			],
			"type":"VEC3"
		},
		{
			"bufferView":29,
			"componentType":5126,
			"count":20,
			"type":"VEC3"
		},
		{
			"bufferView":30,
			"componentType":5126,
			"count":20,
			"type":"VEC2"
		},
		{
			"bufferView":31,
			"componentType":5123,
			"count":30,
			"type":"SCALAR"
		}
	],
	"bufferViews":[
		{
			"buffer":0,
			"byteLength":50484,
			"byteOffset":0,
			"target":34962
		},
		{
			"buffer":0,
			"byteLength":50484,
			"byteOffset":50484,
			"target":34962
		},
		{
			"buffer":0,
			"byteLength":33656,
			"byteOffset":100968,
			"target":34962
		},
		{
			"buffer":0,
			"byteLength":15024,
			"byteOffset":134624,
			"target":34963
		},
		{
			"buffer":0,
			"byteLength":2328,
			"byteOffset":149648,
			"target":34962
		},
		{
			"buffer":0,
			"byteLength":2328,
			"byteOffset":151976,
			"target":34962
		},
		{
			"buffer":0,
			"byteLength":1552,
			"byteOffset":154304,
			"target":34962
		},
		{
			"buffer":0,
			"byteLength":1380,
			"byteOffset":155856,
			"target":34963
		},
		{
			"buffer":0,
			"byteLength":7716,
			"byteOffset":157236,
			"target":34962
		},
		{
			"buffer":0,
			"byteLength":7716,
			"byteOffset":164952,
			"target":34962
		},
		{
			"buffer":0,
			"byteLength":5144,
			"byteOffset":172668,
			"target":34962
		},
		{
			"buffer":0,
			"byteLength":2814,
			"byteOffset":177812,
			"target":34963
		},
		{
			"buffer":0,
			"byteLength":9972,
			"byteOffset":180628,
			"target":34962
		},
		{
			"buffer":0,
			"byteLength":9972,
			"byteOffset":190600,
			"target":34962
		},
		{
			"buffer":0,
			"byteLength":6648,
			"byteOffset":200572,
			"target":34962
		},
		{
			"buffer":0,
			"byteLength":2346,
			"byteOffset":207220,
			"target":34963
		},
		{
			"buffer":0,
			"byteLength":3060,
			"byteOffset":209568,
			"target":34962
		},
		{
			"buffer":0,
			"byteLength":3060,
			"byteOffset":212628,
			"target":34962
		},
		{
			"buffer":0,
			"byteLength":2040,
			"byteOffset":215688,
			"target":34962
		},
		{
			"buffer":0,
			"byteLength":804,
			"byteOffset":217728,
			"target":34963
		},
		{
			"buffer":0,
			"byteLength":576,
			"byteOffset":218532,
			"target":34962
		},
		{
			"buffer":0,
			"byteLength":576,
			"byteOffset":219108,
			"target":34962
		},
		{
			"buffer":0,
			"byteLength":384,
			"byteOffset":219684,
			"target":34962
		},
		{
			"buffer":0,
			"byteLength":156,
			"byteOffset":220068,
			"target":34963
		},
		{
			"buffer":0,
			"byteLength":11112,
			"byteOffset":220224,
			"target":34962
		},
		{
			"buffer":0,
			"byteLength":11112,
			"byteOffset":231336,
			"target":34962
		},
		{
			"buffer":0,
			"byteLength":7408,
			"byteOffset":242448,
			"target":34962
		},
		{
			"buffer":0,
			"byteLength":3096,
			"byteOffset":249856,
			"target":34963
		},
		{
			"buffer":0,
			"byteLength":240,
			"byteOffset":252952,
			"target":34962
		},
		{
			"buffer":0,
			"byteLength":240,
			"byteOffset":253192,
			"target":34962
		},
		{
			"buffer":0,
			"byteLength":160,
			"byteOffset":253432,
			"target":34962
		},
		{
			"buffer":0,
			"byteLength":60,
			"byteOffset":253592,
			"target":34963
		}
	],
	"buffers":[
		{
			"byteLength":253652,
			"uri":"Hume_MRT_Resized.bin"
		}
	]
}
