{
	"asset":{
		"generator":"Khronos glTF Blender I/O v4.1.63",
		"version":"2.0"
	},
	"scene":0,
	"scenes":[
		{
			"name":"Scene",
			"nodes":[
				0
			]
		}
	],
	"nodes":[
		{
			"mesh":0,
			"name":"Cube.015",
			"translation":[
				0,
				9.023335456848145,
				0
			]
		}
	],
	"materials":[
		{
			"doubleSided":true,
			"name":"beige wall",
			"pbrMetallicRoughness":{
				"baseColorFactor":[
					1,
					0.7861779928207397,
					0.5956032872200012,
					1
				],
				"metallicFactor":0,
				"roughnessFactor":0.5
			}
		},
		{
			"doubleSided":true,
			"name":"Window Frames",
			"pbrMetallicRoughness":{
				"baseColorFactor":[
					0.08180034905672073,
					0.08180034905672073,
					0.08180034905672073,
					1
				],
				"metallicFactor":0,
				"roughnessFactor":0.5
			}
		},
		{
			"doubleSided":true,
			"name":"Window",
			"pbrMetallicRoughness":{
				"baseColorFactor":[
					0.29986491799354553,
					0.29986491799354553,
					0.29986491799354553,
					1
				],
				"metallicFactor":0,
				"roughnessFactor":0.5
			}
		},
		{
			"doubleSided":true,
			"name":"Cube",
			"pbrMetallicRoughness":{
				"baseColorFactor":[
					0.7453993558883667,
					0.7454048991203308,
					0.7454046010971069,
					1
				],
				"metallicFactor":0,
				"roughnessFactor":0.5
			}
		},
		{
			"doubleSided":true,
			"name":"surface",
			"pbrMetallicRoughness":{
				"baseColorFactor":[
					0.22177481651306152,
					0.3172340393066406,
					0.3535973131656647,
					1
				],
				"metallicFactor":0,
				"roughnessFactor":0.5
			}
		},
		{
			"doubleSided":true,
			"name":"SMRT Logo",
			"pbrMetallicRoughness":{
				"baseColorFactor":[
					0.8002588152885437,
					0.5188717842102051,
					0.09333153814077377,
					1
				],
				"metallicFactor":0,
				"roughnessFactor":0.5
			}
		},
		{
			"doubleSided":true,
			"name":"Chrome",
			"pbrMetallicRoughness":{
				"baseColorFactor":[
					0.27987146377563477,
					0.27987146377563477,
					0.27987146377563477,
					1
				],
				"metallicFactor":0,
				"roughnessFactor":0.1513761579990387
			}
		},
		{
			"doubleSided":true,
			"name":"heading",
			"pbrMetallicRoughness":{
				"baseColorFactor":[
					0.3647581934928894,
					0.1842135488986969,
					0.10040753334760666,
					1
				],
				"metallicFactor":0,
				"roughnessFactor":0.5
			}
		}
	],
	"meshes":[
		{
			"name":"Cube.016",
			"primitives":[
				{
					"attributes":{
						"POSITION":0,
						"NORMAL":1,
						"TEXCOORD_0":2
					},
					"indices":3,
					"material":0
				},
				{
					"attributes":{
						"POSITION":4,
						"NORMAL":5,
						"TEXCOORD_0":6
					},
					"indices":7,
					"material":1
				},
				{
					"attributes":{
						"POSITION":8,
						"NORMAL":9,
						"TEXCOORD_0":10
					},
					"indices":11,
					"material":2
				},
				{
					"attributes":{
						"POSITION":12,
						"NORMAL":13,
						"TEXCOORD_0":14
					},
					"indices":15,
					"material":3
				},
				{
					"attributes":{
						"POSITION":16,
						"NORMAL":17,
						"TEXCOORD_0":18
					},
					"indices":19,
					"material":4
				},
				{
					"attributes":{
						"POSITION":20,
						"NORMAL":21,
						"TEXCOORD_0":22
					},
					"indices":23,
					"material":5
				},
				{
					"attributes":{
						"POSITION":24,
						"NORMAL":25,
						"TEXCOORD_0":26
					},
					"indices":27,
					"material":6
				},
				{
					"attributes":{
						"POSITION":28,
						"NORMAL":29,
						"TEXCOORD_0":30
					},
					"indices":31,
					"material":7
				}
			]
		}
	],
	"accessors":[
		{
			"bufferView":0,
			"componentType":5126,
			"count":579,
			"max":[
				10.071067810058594,
				20.47742462158203,
				42.00743865966797
			],
			"min":[
				-60.071067810058594,
				-4,
				-8
			],
			"type":"VEC3"
		},
		{
			"bufferView":1,
			"componentType":5126,
			"count":579,
			"type":"VEC3"
		},
		{
			"bufferView":2,
			"componentType":5126,
			"count":579,
			"type":"VEC2"
		},
		{
			"bufferView":3,
			"componentType":5123,
			"count":1296,
			"type":"SCALAR"
		},
		{
			"bufferView":4,
			"componentType":5126,
			"count":891,
			"max":[
				2.497407913208008,
				20.938024520874023,
				43.13065719604492
			],
			"min":[
				-51.697410583496094,
				-4,
				-8
			],
			"type":"VEC3"
		},
		{
			"bufferView":5,
			"componentType":5126,
			"count":891,
			"type":"VEC3"
		},
		{
			"bufferView":6,
			"componentType":5126,
			"count":891,
			"type":"VEC2"
		},
		{
			"bufferView":7,
			"componentType":5123,
			"count":1689,
			"type":"SCALAR"
		},
		{
			"bufferView":8,
			"componentType":5126,
			"count":272,
			"max":[
				1.4856343269348145,
				15,
				40.005950927734375
			],
			"min":[
				-54.45557403564453,
				-4,
				-7.5
			],
			"type":"VEC3"
		},
		{
			"bufferView":9,
			"componentType":5126,
			"count":272,
			"type":"VEC3"
		},
		{
			"bufferView":10,
			"componentType":5126,
			"count":272,
			"type":"VEC2"
		},
		{
			"bufferView":11,
			"componentType":5123,
			"count":432,
			"type":"SCALAR"
		},
		{
			"bufferView":12,
			"componentType":5126,
			"count":72,
			"max":[
				10.08884334564209,
				17.5,
				30.250133514404297
			],
			"min":[
				-57,
				-4.065309524536133,
				-3.5653088092803955
			],
			"type":"VEC3"
		},
		{
			"bufferView":13,
			"componentType":5126,
			"count":72,
			"type":"VEC3"
		},
		{
			"bufferView":14,
			"componentType":5126,
			"count":72,
			"type":"VEC2"
		},
		{
			"bufferView":15,
			"componentType":5123,
			"count":162,
			"type":"SCALAR"
		},
		{
			"bufferView":16,
			"componentType":5126,
			"count":46,
			"max":[
				21.61716079711914,
				1.3354618549346924,
				50.317230224609375
			],
			"min":[
				-62.31734848022461,
				-9.12772274017334,
				-19.317310333251953
			],
			"type":"VEC3"
		},
		{
			"bufferView":17,
			"componentType":5126,
			"count":46,
			"type":"VEC3"
		},
		{
			"bufferView":18,
			"componentType":5126,
			"count":46,
			"type":"VEC2"
		},
		{
			"bufferView":19,
			"componentType":5123,
			"count":78,
			"type":"SCALAR"
		},
		{
			"bufferView":20,
			"componentType":5126,
			"count":546,
			"max":[
				0.21659564971923828,
				12.019993782043457,
				-6.318878173828125
			],
			"min":[
				-8.144075393676758,
				8.06340503692627,
				-6.570878505706787
			],
			"type":"VEC3"
		},
		{
			"bufferView":21,
			"componentType":5126,
			"count":546,
			"type":"VEC3"
		},
		{
			"bufferView":22,
			"componentType":5126,
			"count":546,
			"type":"VEC2"
		},
		{
			"bufferView":23,
			"componentType":5123,
			"count":1116,
			"type":"SCALAR"
		},
		{
			"bufferView":24,
			"componentType":5126,
			"count":1916,
			"max":[
				-6.825324058532715,
				-4.350522994995117,
				-18.841318130493164
			],
			"min":[
				-33.707786560058594,
				-8.350522994995117,
				-20.490671157836914
			],
			"type":"VEC3"
		},
		{
			"bufferView":25,
			"componentType":5126,
			"count":1916,
			"type":"VEC3"
		},
		{
			"bufferView":26,
			"componentType":5126,
			"count":1916,
			"type":"VEC2"
		},
		{
			"bufferView":27,
			"componentType":5123,
			"count":3816,
			"type":"SCALAR"
		},
		{
			"bufferView":28,
			"componentType":5126,
			"count":20,
			"max":[
				9.854114532470703,
				1.3354618549346924,
				0.2841362953186035
			],
			"min":[
				-49.34080505371094,
				0.22268176078796387,
				-12.449516296386719
			],
			"type":"VEC3"
		},
		{
			"bufferView":29,
			"componentType":5126,
			"count":20,
			"type":"VEC3"
		},
		{
			"bufferView":30,
			"componentType":5126,
			"count":20,
			"type":"VEC2"
		},
		{
			"bufferView":31,
			"componentType":5123,
			"count":30,
			"type":"SCALAR"
		}
	],
	"bufferViews":[
		{
			"buffer":0,
			"byteLength":6948,
			"byteOffset":0,
			"target":34962
		},
		{
			"buffer":0,
			"byteLength":6948,
			"byteOffset":6948,
			"target":34962
		},
		{
			"buffer":0,
			"byteLength":4632,
			"byteOffset":13896,
			"target":34962
		},
		{
			"buffer":0,
			"byteLength":2592,
			"byteOffset":18528,
			"target":34963
		},
		{
			"buffer":0,
			"byteLength":10692,
			"byteOffset":21120,
			"target":34962
		},
		{
			"buffer":0,
			"byteLength":10692,
			"byteOffset":31812,
			"target":34962
		},
		{
			"buffer":0,
			"byteLength":7128,
			"byteOffset":42504,
			"target":34962
		},
		{
			"buffer":0,
			"byteLength":3378,
			"byteOffset":49632,
			"target":34963
		},
		{
			"buffer":0,
			"byteLength":3264,
			"byteOffset":53012,
			"target":34962
		},
		{
			"buffer":0,
			"byteLength":3264,
			"byteOffset":56276,
			"target":34962
		},
		{
			"buffer":0,
			"byteLength":2176,
			"byteOffset":59540,
			"target":34962
		},
		{
			"buffer":0,
			"byteLength":864,
			"byteOffset":61716,
			"target":34963
		},
		{
			"buffer":0,
			"byteLength":864,
			"byteOffset":62580,
			"target":34962
		},
		{
			"buffer":0,
			"byteLength":864,
			"byteOffset":63444,
			"target":34962
		},
		{
			"buffer":0,
			"byteLength":576,
			"byteOffset":64308,
			"target":34962
		},
		{
			"buffer":0,
			"byteLength":324,
			"byteOffset":64884,
			"target":34963
		},
		{
			"buffer":0,
			"byteLength":552,
			"byteOffset":65208,
			"target":34962
		},
		{
			"buffer":0,
			"byteLength":552,
			"byteOffset":65760,
			"target":34962
		},
		{
			"buffer":0,
			"byteLength":368,
			"byteOffset":66312,
			"target":34962
		},
		{
			"buffer":0,
			"byteLength":156,
			"byteOffset":66680,
			"target":34963
		},
		{
			"buffer":0,
			"byteLength":6552,
			"byteOffset":66836,
			"target":34962
		},
		{
			"buffer":0,
			"byteLength":6552,
			"byteOffset":73388,
			"target":34962
		},
		{
			"buffer":0,
			"byteLength":4368,
			"byteOffset":79940,
			"target":34962
		},
		{
			"buffer":0,
			"byteLength":2232,
			"byteOffset":84308,
			"target":34963
		},
		{
			"buffer":0,
			"byteLength":22992,
			"byteOffset":86540,
			"target":34962
		},
		{
			"buffer":0,
			"byteLength":22992,
			"byteOffset":109532,
			"target":34962
		},
		{
			"buffer":0,
			"byteLength":15328,
			"byteOffset":132524,
			"target":34962
		},
		{
			"buffer":0,
			"byteLength":7632,
			"byteOffset":147852,
			"target":34963
		},
		{
			"buffer":0,
			"byteLength":240,
			"byteOffset":155484,
			"target":34962
		},
		{
			"buffer":0,
			"byteLength":240,
			"byteOffset":155724,
			"target":34962
		},
		{
			"buffer":0,
			"byteLength":160,
			"byteOffset":155964,
			"target":34962
		},
		{
			"buffer":0,
			"byteLength":60,
			"byteOffset":156124,
			"target":34963
		}
	],
	"buffers":[
		{
			"byteLength":156184,
			"uri":"MRT.bin"
		}
	]
}
