{
	"asset":{
		"generator":"Khronos glTF Blender I/O v4.1.63",
		"version":"2.0"
	},
	"scene":0,
	"scenes":[
		{
			"name":"Scene",
			"nodes":[
				0
			]
		}
	],
	"nodes":[
		{
			"mesh":0,
			"name":"HDB4"
		}
	],
	"materials":[
		{
			"doubleSided":true,
			"name":"Walls",
			"pbrMetallicRoughness":{
				"baseColorFactor":[
					0.800000011920929,
					0.800000011920929,
					0.800000011920929,
					1
				],
				"metallicFactor":0,
				"roughnessFactor":0.5
			}
		},
		{
			"doubleSided":true,
			"name":"Windows",
			"pbrMetallicRoughness":{
				"baseColorFactor":[
					0,
					0,
					0,
					1
				],
				"metallicFactor":0,
				"roughnessFactor":0.5
			}
		},
		{
			"doubleSided":true,
			"name":"Base",
			"pbrMetallicRoughness":{
				"baseColorFactor":[
					0.7990986704826355,
					0.13013648986816406,
					0.18116432428359985,
					1
				],
				"metallicFactor":0,
				"roughnessFactor":0.5
			}
		}
	],
	"meshes":[
		{
			"name":"Cube.008",
			"primitives":[
				{
					"attributes":{
						"POSITION":0,
						"NORMAL":1,
						"TEXCOORD_0":2
					},
					"indices":3,
					"material":0
				},
				{
					"attributes":{
						"POSITION":4,
						"NORMAL":5,
						"TEXCOORD_0":6
					},
					"indices":7,
					"material":1
				},
				{
					"attributes":{
						"POSITION":8,
						"NORMAL":9,
						"TEXCOORD_0":10
					},
					"indices":11,
					"material":2
				}
			]
		}
	],
	"accessors":[
		{
			"bufferView":0,
			"componentType":5126,
			"count":11935,
			"max":[
				0.048767149448394775,
				0.5204651951789856,
				0.0011964713921770453
			],
			"min":[
				-0.12373947352170944,
				-0.011964717879891396,
				-0.6406970024108887
			],
			"type":"VEC3"
		},
		{
			"bufferView":1,
			"componentType":5126,
			"count":11935,
			"type":"VEC3"
		},
		{
			"bufferView":2,
			"componentType":5126,
			"count":11935,
			"type":"VEC2"
		},
		{
			"bufferView":3,
			"componentType":5123,
			"count":23808,
			"type":"SCALAR"
		},
		{
			"bufferView":4,
			"componentType":5126,
			"count":1088,
			"max":[
				0.025125905871391296,
				0.45700764656066895,
				-0.0035894159227609634
			],
			"min":[
				-0.09093184769153595,
				-0.00833073165267706,
				-0.6125489473342896
			],
			"type":"VEC3"
		},
		{
			"bufferView":5,
			"componentType":5126,
			"count":1088,
			"type":"VEC3"
		},
		{
			"bufferView":6,
			"componentType":5126,
			"count":1088,
			"type":"VEC2"
		},
		{
			"bufferView":7,
			"componentType":5123,
			"count":1632,
			"type":"SCALAR"
		},
		{
			"bufferView":8,
			"componentType":5126,
			"count":648,
			"max":[
				0.029911793768405914,
				0.19741784036159515,
				0.0011964713921770453
			],
			"min":[
				-0.10768245160579681,
				0.0777706652879715,
				-0.6161829233169556
			],
			"type":"VEC3"
		},
		{
			"bufferView":9,
			"componentType":5126,
			"count":648,
			"type":"VEC3"
		},
		{
			"bufferView":10,
			"componentType":5126,
			"count":648,
			"type":"VEC2"
		},
		{
			"bufferView":11,
			"componentType":5123,
			"count":1926,
			"type":"SCALAR"
		}
	],
	"bufferViews":[
		{
			"buffer":0,
			"byteLength":143220,
			"byteOffset":0,
			"target":34962
		},
		{
			"buffer":0,
			"byteLength":143220,
			"byteOffset":143220,
			"target":34962
		},
		{
			"buffer":0,
			"byteLength":95480,
			"byteOffset":286440,
			"target":34962
		},
		{
			"buffer":0,
			"byteLength":47616,
			"byteOffset":381920,
			"target":34963
		},
		{
			"buffer":0,
			"byteLength":13056,
			"byteOffset":429536,
			"target":34962
		},
		{
			"buffer":0,
			"byteLength":13056,
			"byteOffset":442592,
			"target":34962
		},
		{
			"buffer":0,
			"byteLength":8704,
			"byteOffset":455648,
			"target":34962
		},
		{
			"buffer":0,
			"byteLength":3264,
			"byteOffset":464352,
			"target":34963
		},
		{
			"buffer":0,
			"byteLength":7776,
			"byteOffset":467616,
			"target":34962
		},
		{
			"buffer":0,
			"byteLength":7776,
			"byteOffset":475392,
			"target":34962
		},
		{
			"buffer":0,
			"byteLength":5184,
			"byteOffset":483168,
			"target":34962
		},
		{
			"buffer":0,
			"byteLength":3852,
			"byteOffset":488352,
			"target":34963
		}
	],
	"buffers":[
		{
			"byteLength":492204,
			"uri":"HDB.bin"
		}
	]
}
