{
	"asset":{
		"generator":"Khronos glTF Blender I/O v4.1.63",
		"version":"2.0"
	},
	"scene":0,
	"scenes":[
		{
			"name":"Scene",
			"nodes":[
				0
			]
		}
	],
	"nodes":[
		{
			"mesh":0,
			"name":"Hume MRT.001",
			"rotation":[
				0,
				-1,
				0,
				4.371138828673793e-08
			],
			"scale":[
				0.02640104480087757,
				0.02640104480087757,
				0.02640104480087757
			]
		}
	],
	"materials":[
		{
			"doubleSided":true,
			"name":"Cube.001",
			"pbrMetallicRoughness":{
				"baseColorFactor":[
					0.7453993558883667,
					0.7454048991203308,
					0.7454046010971069,
					1
				],
				"metallicFactor":0,
				"roughnessFactor":0.5
			}
		},
		{
			"doubleSided":true,
			"name":"beige wall.001",
			"pbrMetallicRoughness":{
				"baseColorFactor":[
					1,
					0.7861779928207397,
					0.5956032872200012,
					1
				],
				"metallicFactor":0,
				"roughnessFactor":0.5
			}
		},
		{
			"doubleSided":true,
			"name":"Window Frames.001",
			"pbrMetallicRoughness":{
				"baseColorFactor":[
					0.08180034905672073,
					0.08180034905672073,
					0.08180034905672073,
					1
				],
				"metallicFactor":0,
				"roughnessFactor":0.5
			}
		},
		{
			"doubleSided":true,
			"name":"Window.001",
			"pbrMetallicRoughness":{
				"baseColorFactor":[
					0.29986491799354553,
					0.29986491799354553,
					0.29986491799354553,
					1
				],
				"metallicFactor":0,
				"roughnessFactor":0.5
			}
		},
		{
			"doubleSided":true,
			"name":"surface.001",
			"pbrMetallicRoughness":{
				"baseColorFactor":[
					0.22177481651306152,
					0.3172340393066406,
					0.3535973131656647,
					1
				],
				"metallicFactor":0,
				"roughnessFactor":0.5
			}
		},
		{
			"doubleSided":true,
			"name":"SMRT Logo.001",
			"pbrMetallicRoughness":{
				"baseColorFactor":[
					0.8002588152885437,
					0.5188717842102051,
					0.09333153814077377,
					1
				],
				"metallicFactor":0,
				"roughnessFactor":0.5
			}
		},
		{
			"doubleSided":true,
			"name":"Chrome.001",
			"pbrMetallicRoughness":{
				"baseColorFactor":[
					0.27987146377563477,
					0.27987146377563477,
					0.27987146377563477,
					1
				],
				"metallicFactor":0,
				"roughnessFactor":0.1513761579990387
			}
		},
		{
			"doubleSided":true,
			"name":"heading.001",
			"pbrMetallicRoughness":{
				"baseColorFactor":[
					0.3647581934928894,
					0.1842135488986969,
					0.10040753334760666,
					1
				],
				"metallicFactor":0,
				"roughnessFactor":0.5
			}
		}
	],
	"meshes":[
		{
			"name":"Cube.008",
			"primitives":[
				{
					"attributes":{
						"POSITION":0,
						"NORMAL":1,
						"TEXCOORD_0":2
					},
					"indices":3,
					"material":0
				},
				{
					"attributes":{
						"POSITION":4,
						"NORMAL":5,
						"TEXCOORD_0":6
					},
					"indices":7,
					"material":1
				},
				{
					"attributes":{
						"POSITION":8,
						"NORMAL":9,
						"TEXCOORD_0":10
					},
					"indices":11,
					"material":2
				},
				{
					"attributes":{
						"POSITION":12,
						"NORMAL":13,
						"TEXCOORD_0":14
					},
					"indices":15,
					"material":3
				},
				{
					"attributes":{
						"POSITION":16,
						"NORMAL":17,
						"TEXCOORD_0":18
					},
					"indices":19,
					"material":4
				},
				{
					"attributes":{
						"POSITION":20,
						"NORMAL":21,
						"TEXCOORD_0":22
					},
					"indices":23,
					"material":5
				},
				{
					"attributes":{
						"POSITION":24,
						"NORMAL":25,
						"TEXCOORD_0":26
					},
					"indices":27,
					"material":6
				},
				{
					"attributes":{
						"POSITION":28,
						"NORMAL":29,
						"TEXCOORD_0":30
					},
					"indices":31,
					"material":7
				}
			]
		}
	],
	"accessors":[
		{
			"bufferView":0,
			"componentType":5126,
			"count":36,
			"max":[
				3.1291685104370117,
				8.439047813415527,
				18.09648895263672
			],
			"min":[
				-36.74167251586914,
				-4.377196311950684,
				-2
			],
			"type":"VEC3"
		},
		{
			"bufferView":1,
			"componentType":5126,
			"count":36,
			"type":"VEC3"
		},
		{
			"bufferView":2,
			"componentType":5126,
			"count":36,
			"type":"VEC2"
		},
		{
			"bufferView":3,
			"componentType":5123,
			"count":54,
			"type":"SCALAR"
		},
		{
			"bufferView":4,
			"componentType":5126,
			"count":474,
			"max":[
				3.118605136871338,
				10.208528518676758,
				25.083845138549805
			],
			"min":[
				-38.56680679321289,
				-4.338383674621582,
				-4.635533332824707
			],
			"type":"VEC3"
		},
		{
			"bufferView":5,
			"componentType":5126,
			"count":474,
			"type":"VEC3"
		},
		{
			"bufferView":6,
			"componentType":5126,
			"count":474,
			"type":"VEC2"
		},
		{
			"bufferView":7,
			"componentType":5123,
			"count":1005,
			"type":"SCALAR"
		},
		{
			"bufferView":8,
			"componentType":5126,
			"count":669,
			"max":[
				-1.382415771484375,
				10.482263565063477,
				25.751371383666992
			],
			"min":[
				-33.59034729003906,
				-4.338383674621582,
				-4.635533332824707
			],
			"type":"VEC3"
		},
		{
			"bufferView":9,
			"componentType":5126,
			"count":669,
			"type":"VEC3"
		},
		{
			"bufferView":10,
			"componentType":5126,
			"count":669,
			"type":"VEC2"
		},
		{
			"bufferView":11,
			"componentType":5123,
			"count":1167,
			"type":"SCALAR"
		},
		{
			"bufferView":12,
			"componentType":5126,
			"count":235,
			"max":[
				-1.983710765838623,
				6.953299522399902,
				23.89436149597168
			],
			"min":[
				-35.229522705078125,
				-4.338383674621582,
				-4.338383674621582
			],
			"type":"VEC3"
		},
		{
			"bufferView":13,
			"componentType":5126,
			"count":235,
			"type":"VEC3"
		},
		{
			"bufferView":14,
			"componentType":5126,
			"count":235,
			"type":"VEC2"
		},
		{
			"bufferView":15,
			"componentType":5123,
			"count":357,
			"type":"SCALAR"
		},
		{
			"bufferView":16,
			"componentType":5126,
			"count":66,
			"max":[
				9.980439186096191,
				-1.1675235033035278,
				30.02234649658203
			],
			"min":[
				-39.90176773071289,
				-7.385785102844238,
				-13.109686851501465
			],
			"type":"VEC3"
		},
		{
			"bufferView":17,
			"componentType":5126,
			"count":66,
			"type":"VEC3"
		},
		{
			"bufferView":18,
			"componentType":5126,
			"count":66,
			"type":"VEC2"
		},
		{
			"bufferView":19,
			"componentType":5123,
			"count":108,
			"type":"SCALAR"
		},
		{
			"bufferView":20,
			"componentType":5126,
			"count":690,
			"max":[
				-2.7378993034362793,
				5.182284832000732,
				-3.507500648498535
			],
			"min":[
				-7.706638336181641,
				2.8308873176574707,
				-3.786207914352417
			],
			"type":"VEC3"
		},
		{
			"bufferView":21,
			"componentType":5126,
			"count":690,
			"type":"VEC3"
		},
		{
			"bufferView":22,
			"componentType":5126,
			"count":690,
			"type":"VEC2"
		},
		{
			"bufferView":23,
			"componentType":5123,
			"count":1278,
			"type":"SCALAR"
		},
		{
			"bufferView":24,
			"componentType":5126,
			"count":1914,
			"max":[
				-6.922905921936035,
				-4.546699047088623,
				-11.078518867492676
			],
			"min":[
				-22.899131774902344,
				-6.923895359039307,
				-12.058728218078613
			],
			"type":"VEC3"
		},
		{
			"bufferView":25,
			"componentType":5126,
			"count":1914,
			"type":"VEC3"
		},
		{
			"bufferView":26,
			"componentType":5126,
			"count":1914,
			"type":"VEC2"
		},
		{
			"bufferView":27,
			"componentType":5123,
			"count":3789,
			"type":"SCALAR"
		},
		{
			"bufferView":28,
			"componentType":5126,
			"count":20,
			"max":[
				2.989668846130371,
				-1.1675235033035278,
				0.2877216339111328
			],
			"min":[
				-32.1898193359375,
				-1.8288477659225464,
				-7.279877185821533
			],
			"type":"VEC3"
		},
		{
			"bufferView":29,
			"componentType":5126,
			"count":20,
			"type":"VEC3"
		},
		{
			"bufferView":30,
			"componentType":5126,
			"count":20,
			"type":"VEC2"
		},
		{
			"bufferView":31,
			"componentType":5123,
			"count":30,
			"type":"SCALAR"
		}
	],
	"bufferViews":[
		{
			"buffer":0,
			"byteLength":432,
			"byteOffset":0,
			"target":34962
		},
		{
			"buffer":0,
			"byteLength":432,
			"byteOffset":432,
			"target":34962
		},
		{
			"buffer":0,
			"byteLength":288,
			"byteOffset":864,
			"target":34962
		},
		{
			"buffer":0,
			"byteLength":108,
			"byteOffset":1152,
			"target":34963
		},
		{
			"buffer":0,
			"byteLength":5688,
			"byteOffset":1260,
			"target":34962
		},
		{
			"buffer":0,
			"byteLength":5688,
			"byteOffset":6948,
			"target":34962
		},
		{
			"buffer":0,
			"byteLength":3792,
			"byteOffset":12636,
			"target":34962
		},
		{
			"buffer":0,
			"byteLength":2010,
			"byteOffset":16428,
			"target":34963
		},
		{
			"buffer":0,
			"byteLength":8028,
			"byteOffset":18440,
			"target":34962
		},
		{
			"buffer":0,
			"byteLength":8028,
			"byteOffset":26468,
			"target":34962
		},
		{
			"buffer":0,
			"byteLength":5352,
			"byteOffset":34496,
			"target":34962
		},
		{
			"buffer":0,
			"byteLength":2334,
			"byteOffset":39848,
			"target":34963
		},
		{
			"buffer":0,
			"byteLength":2820,
			"byteOffset":42184,
			"target":34962
		},
		{
			"buffer":0,
			"byteLength":2820,
			"byteOffset":45004,
			"target":34962
		},
		{
			"buffer":0,
			"byteLength":1880,
			"byteOffset":47824,
			"target":34962
		},
		{
			"buffer":0,
			"byteLength":714,
			"byteOffset":49704,
			"target":34963
		},
		{
			"buffer":0,
			"byteLength":792,
			"byteOffset":50420,
			"target":34962
		},
		{
			"buffer":0,
			"byteLength":792,
			"byteOffset":51212,
			"target":34962
		},
		{
			"buffer":0,
			"byteLength":528,
			"byteOffset":52004,
			"target":34962
		},
		{
			"buffer":0,
			"byteLength":216,
			"byteOffset":52532,
			"target":34963
		},
		{
			"buffer":0,
			"byteLength":8280,
			"byteOffset":52748,
			"target":34962
		},
		{
			"buffer":0,
			"byteLength":8280,
			"byteOffset":61028,
			"target":34962
		},
		{
			"buffer":0,
			"byteLength":5520,
			"byteOffset":69308,
			"target":34962
		},
		{
			"buffer":0,
			"byteLength":2556,
			"byteOffset":74828,
			"target":34963
		},
		{
			"buffer":0,
			"byteLength":22968,
			"byteOffset":77384,
			"target":34962
		},
		{
			"buffer":0,
			"byteLength":22968,
			"byteOffset":100352,
			"target":34962
		},
		{
			"buffer":0,
			"byteLength":15312,
			"byteOffset":123320,
			"target":34962
		},
		{
			"buffer":0,
			"byteLength":7578,
			"byteOffset":138632,
			"target":34963
		},
		{
			"buffer":0,
			"byteLength":240,
			"byteOffset":146212,
			"target":34962
		},
		{
			"buffer":0,
			"byteLength":240,
			"byteOffset":146452,
			"target":34962
		},
		{
			"buffer":0,
			"byteLength":160,
			"byteOffset":146692,
			"target":34962
		},
		{
			"buffer":0,
			"byteLength":60,
			"byteOffset":146852,
			"target":34963
		}
	],
	"buffers":[
		{
			"byteLength":146912,
			"uri":"Hume_MRT_Resized.bin"
		}
	]
}
