{
	"asset":{
		"generator":"Khronos glTF Blender I/O v4.1.63",
		"version":"2.0"
	},
	"scene":0,
	"scenes":[
		{
			"name":"Scene",
			"nodes":[
				0
			]
		}
	],
	"nodes":[
		{
			"mesh":0,
			"name":"Hume MRT"
		}
	],
	"materials":[
		{
			"doubleSided":true,
			"name":"Chrome",
			"pbrMetallicRoughness":{
				"baseColorFactor":[
					0.27987146377563477,
					0.27987146377563477,
					0.27987146377563477,
					1
				],
				"metallicFactor":0,
				"roughnessFactor":0.1513761579990387
			}
		},
		{
			"doubleSided":true,
			"name":"Cube",
			"pbrMetallicRoughness":{
				"baseColorFactor":[
					0.7453993558883667,
					0.7454048991203308,
					0.7454046010971069,
					1
				],
				"metallicFactor":0,
				"roughnessFactor":0.5
			}
		},
		{
			"doubleSided":true,
			"name":"beige wall",
			"pbrMetallicRoughness":{
				"baseColorFactor":[
					1,
					0.7861779928207397,
					0.5956032872200012,
					1
				],
				"metallicFactor":0,
				"roughnessFactor":0.5
			}
		},
		{
			"doubleSided":true,
			"name":"Window Frames",
			"pbrMetallicRoughness":{
				"baseColorFactor":[
					0.08180034905672073,
					0.08180034905672073,
					0.08180034905672073,
					1
				],
				"metallicFactor":0,
				"roughnessFactor":0.5
			}
		},
		{
			"doubleSided":true,
			"name":"Window",
			"pbrMetallicRoughness":{
				"baseColorFactor":[
					0.29986491799354553,
					0.29986491799354553,
					0.29986491799354553,
					1
				],
				"metallicFactor":0,
				"roughnessFactor":0.5
			}
		},
		{
			"doubleSided":true,
			"name":"surface",
			"pbrMetallicRoughness":{
				"baseColorFactor":[
					0.22177481651306152,
					0.3172340393066406,
					0.3535973131656647,
					1
				],
				"metallicFactor":0,
				"roughnessFactor":0.5
			}
		},
		{
			"doubleSided":true,
			"name":"SMRT Logo",
			"pbrMetallicRoughness":{
				"baseColorFactor":[
					0.8002588152885437,
					0.5188717842102051,
					0.09333153814077377,
					1
				],
				"metallicFactor":0,
				"roughnessFactor":0.5
			}
		},
		{
			"doubleSided":true,
			"name":"heading",
			"pbrMetallicRoughness":{
				"baseColorFactor":[
					0.3647581934928894,
					0.1842135488986969,
					0.10040753334760666,
					1
				],
				"metallicFactor":0,
				"roughnessFactor":0.5
			}
		}
	],
	"meshes":[
		{
			"name":"Cube.039",
			"primitives":[
				{
					"attributes":{
						"POSITION":0,
						"NORMAL":1,
						"TEXCOORD_0":2
					},
					"indices":3,
					"material":0
				},
				{
					"attributes":{
						"POSITION":4,
						"NORMAL":5,
						"TEXCOORD_0":6
					},
					"indices":7,
					"material":1
				},
				{
					"attributes":{
						"POSITION":8,
						"NORMAL":9,
						"TEXCOORD_0":10
					},
					"indices":11,
					"material":2
				},
				{
					"attributes":{
						"POSITION":12,
						"NORMAL":13,
						"TEXCOORD_0":14
					},
					"indices":15,
					"material":3
				},
				{
					"attributes":{
						"POSITION":16,
						"NORMAL":17,
						"TEXCOORD_0":18
					},
					"indices":19,
					"material":4
				},
				{
					"attributes":{
						"POSITION":20,
						"NORMAL":21,
						"TEXCOORD_0":22
					},
					"indices":23,
					"material":5
				},
				{
					"attributes":{
						"POSITION":24,
						"NORMAL":25,
						"TEXCOORD_0":26
					},
					"indices":27,
					"material":6
				},
				{
					"attributes":{
						"POSITION":28,
						"NORMAL":29,
						"TEXCOORD_0":30
					},
					"indices":31,
					"material":7
				}
			]
		}
	],
	"accessors":[
		{
			"bufferView":0,
			"componentType":5126,
			"count":3849,
			"max":[
				0.21813595294952393,
				0.032457731664180756,
				0.018520168960094452
			],
			"min":[
				-0.21813590824604034,
				-0.032457731664180756,
				-0.013383576646447182
			],
			"type":"VEC3"
		},
		{
			"bufferView":1,
			"componentType":5126,
			"count":3849,
			"type":"VEC3"
		},
		{
			"bufferView":2,
			"componentType":5126,
			"count":3849,
			"type":"VEC2"
		},
		{
			"bufferView":3,
			"componentType":5123,
			"count":7470,
			"type":"SCALAR"
		},
		{
			"bufferView":4,
			"componentType":5126,
			"count":36,
			"max":[
				0.596142053604126,
				0.38706693053245544,
				-0.2612958252429962
			],
			"min":[
				-0.492633581161499,
				0.037086423486471176,
				-0.8100820779800415
			],
			"type":"VEC3"
		},
		{
			"bufferView":5,
			"componentType":5126,
			"count":36,
			"type":"VEC3"
		},
		{
			"bufferView":6,
			"componentType":5126,
			"count":36,
			"type":"VEC2"
		},
		{
			"bufferView":7,
			"componentType":5123,
			"count":54,
			"type":"SCALAR"
		},
		{
			"bufferView":8,
			"componentType":5126,
			"count":476,
			"max":[
				0.6459819674491882,
				0.43538713455200195,
				-0.18932585418224335
			],
			"min":[
				-0.4923452138900757,
				0.03814632073044777,
				-1.0008896589279175
			],
			"type":"VEC3"
		},
		{
			"bufferView":9,
			"componentType":5126,
			"count":476,
			"type":"VEC3"
		},
		{
			"bufferView":10,
			"componentType":5126,
			"count":476,
			"type":"VEC2"
		},
		{
			"bufferView":11,
			"componentType":5123,
			"count":1002,
			"type":"SCALAR"
		},
		{
			"bufferView":12,
			"componentType":5126,
			"count":672,
			"max":[
				0.5100870132446289,
				0.4428621530532837,
				-0.18932585418224335
			],
			"min":[
				-0.3694332540035248,
				0.03814632073044777,
				-1.019118309020996
			],
			"type":"VEC3"
		},
		{
			"bufferView":13,
			"componentType":5126,
			"count":672,
			"type":"VEC3"
		},
		{
			"bufferView":14,
			"componentType":5126,
			"count":672,
			"type":"VEC2"
		},
		{
			"bufferView":15,
			"componentType":5123,
			"count":1167,
			"type":"SCALAR"
		},
		{
			"bufferView":16,
			"componentType":5126,
			"count":235,
			"max":[
				0.5548489093780518,
				0.34649476408958435,
				-0.1974402666091919
			],
			"min":[
				-0.3530133068561554,
				0.03814632073044777,
				-0.9684079885482788
			],
			"type":"VEC3"
		},
		{
			"bufferView":17,
			"componentType":5126,
			"count":235,
			"type":"VEC3"
		},
		{
			"bufferView":18,
			"componentType":5126,
			"count":235,
			"type":"VEC2"
		},
		{
			"bufferView":19,
			"componentType":5123,
			"count":357,
			"type":"SCALAR"
		},
		{
			"bufferView":20,
			"componentType":5126,
			"count":46,
			"max":[
				0.6824366450309753,
				0.1247348040342331,
				-0.005658713169395924
			],
			"min":[
				-0.6797252297401428,
				-0.04507080465555191,
				-1.135748267173767
			],
			"type":"VEC3"
		},
		{
			"bufferView":21,
			"componentType":5126,
			"count":46,
			"type":"VEC3"
		},
		{
			"bufferView":22,
			"componentType":5126,
			"count":46,
			"type":"VEC2"
		},
		{
			"bufferView":23,
			"componentType":5123,
			"count":78,
			"type":"SCALAR"
		},
		{
			"bufferView":24,
			"componentType":5126,
			"count":690,
			"max":[
				-0.19673407077789307,
				0.29813265800476074,
				-0.2125188410282135
			],
			"min":[
				-0.332418292760849,
				0.23392170667648315,
				-0.22012963891029358
			],
			"type":"VEC3"
		},
		{
			"bufferView":25,
			"componentType":5126,
			"count":690,
			"type":"VEC3"
		},
		{
			"bufferView":26,
			"componentType":5126,
			"count":690,
			"type":"VEC2"
		},
		{
			"bufferView":27,
			"componentType":5123,
			"count":1278,
			"type":"SCALAR"
		},
		{
			"bufferView":28,
			"componentType":5126,
			"count":20,
			"max":[
				0.47184208035469055,
				0.1247348040342331,
				-0.11711520701646805
			],
			"min":[
				-0.4888242483139038,
				0.1066756471991539,
				-0.3237679898738861
			],
			"type":"VEC3"
		},
		{
			"bufferView":29,
			"componentType":5126,
			"count":20,
			"type":"VEC3"
		},
		{
			"bufferView":30,
			"componentType":5126,
			"count":20,
			"type":"VEC2"
		},
		{
			"bufferView":31,
			"componentType":5123,
			"count":30,
			"type":"SCALAR"
		}
	],
	"bufferViews":[
		{
			"buffer":0,
			"byteLength":46188,
			"byteOffset":0,
			"target":34962
		},
		{
			"buffer":0,
			"byteLength":46188,
			"byteOffset":46188,
			"target":34962
		},
		{
			"buffer":0,
			"byteLength":30792,
			"byteOffset":92376,
			"target":34962
		},
		{
			"buffer":0,
			"byteLength":14940,
			"byteOffset":123168,
			"target":34963
		},
		{
			"buffer":0,
			"byteLength":432,
			"byteOffset":138108,
			"target":34962
		},
		{
			"buffer":0,
			"byteLength":432,
			"byteOffset":138540,
			"target":34962
		},
		{
			"buffer":0,
			"byteLength":288,
			"byteOffset":138972,
			"target":34962
		},
		{
			"buffer":0,
			"byteLength":108,
			"byteOffset":139260,
			"target":34963
		},
		{
			"buffer":0,
			"byteLength":5712,
			"byteOffset":139368,
			"target":34962
		},
		{
			"buffer":0,
			"byteLength":5712,
			"byteOffset":145080,
			"target":34962
		},
		{
			"buffer":0,
			"byteLength":3808,
			"byteOffset":150792,
			"target":34962
		},
		{
			"buffer":0,
			"byteLength":2004,
			"byteOffset":154600,
			"target":34963
		},
		{
			"buffer":0,
			"byteLength":8064,
			"byteOffset":156604,
			"target":34962
		},
		{
			"buffer":0,
			"byteLength":8064,
			"byteOffset":164668,
			"target":34962
		},
		{
			"buffer":0,
			"byteLength":5376,
			"byteOffset":172732,
			"target":34962
		},
		{
			"buffer":0,
			"byteLength":2334,
			"byteOffset":178108,
			"target":34963
		},
		{
			"buffer":0,
			"byteLength":2820,
			"byteOffset":180444,
			"target":34962
		},
		{
			"buffer":0,
			"byteLength":2820,
			"byteOffset":183264,
			"target":34962
		},
		{
			"buffer":0,
			"byteLength":1880,
			"byteOffset":186084,
			"target":34962
		},
		{
			"buffer":0,
			"byteLength":714,
			"byteOffset":187964,
			"target":34963
		},
		{
			"buffer":0,
			"byteLength":552,
			"byteOffset":188680,
			"target":34962
		},
		{
			"buffer":0,
			"byteLength":552,
			"byteOffset":189232,
			"target":34962
		},
		{
			"buffer":0,
			"byteLength":368,
			"byteOffset":189784,
			"target":34962
		},
		{
			"buffer":0,
			"byteLength":156,
			"byteOffset":190152,
			"target":34963
		},
		{
			"buffer":0,
			"byteLength":8280,
			"byteOffset":190308,
			"target":34962
		},
		{
			"buffer":0,
			"byteLength":8280,
			"byteOffset":198588,
			"target":34962
		},
		{
			"buffer":0,
			"byteLength":5520,
			"byteOffset":206868,
			"target":34962
		},
		{
			"buffer":0,
			"byteLength":2556,
			"byteOffset":212388,
			"target":34963
		},
		{
			"buffer":0,
			"byteLength":240,
			"byteOffset":214944,
			"target":34962
		},
		{
			"buffer":0,
			"byteLength":240,
			"byteOffset":215184,
			"target":34962
		},
		{
			"buffer":0,
			"byteLength":160,
			"byteOffset":215424,
			"target":34962
		},
		{
			"buffer":0,
			"byteLength":60,
			"byteOffset":215584,
			"target":34963
		}
	],
	"buffers":[
		{
			"byteLength":215644,
			"uri":"Hume_MRT_Resized.bin"
		}
	]
}
